<?xml version="1.0" encoding="UTF-8"?>
<svg xmlns="http://www.w3.org/2000/svg" viewBox="0 0 175.216 175.552">
  <defs>
    <linearGradient id="a" x1="35.605" x2="35.605" y1="156.723" y2="31.774" gradientUnits="userSpaceOnUse">
      <stop offset="0" stop-color="#20b038"/>
      <stop offset="1" stop-color="#60d66a"/>
    </linearGradient>
  </defs>
  <path fill="url(#a)" d="M35.604 169.563c-5.444 0-10.902-1.314-15.835-3.866l-15.531 4.282c-2.452.684-4.661-1.416-4.06-3.903l4.187-16.687C1.225 143.99 0 137.846 0 131.593c0-20.92 15.981-37.959 35.604-37.959 9.602 0 18.666 3.813 25.457 10.74 6.792 6.927 10.532 16.131 10.532 25.883 0 20.931-15.993 38.037-35.604 38.037zm0-69.552c-17.015 0-30.87 15.062-30.87 33.581 0 5.598 1.194 11.016 3.531 16.112.429.909.342 1.977-.209 2.799l-3.281 4.892 5.093-1.401c.925-.245 1.916-.098 2.712.406 5.158 3.249 11.109 4.981 17.097 4.981 17.016 0 30.871-15.077 30.871-33.671 0-8.935-3.396-17.335-9.57-23.629-6.173-6.295-14.374-9.759-23.219-9.759z"/>
  <path fill="url(#a)" d="M35.604 169.563c-5.444 0-10.902-1.314-15.835-3.866l-15.531 4.282c-2.452.684-4.661-1.416-4.06-3.903l4.187-16.687C1.225 143.99 0 137.846 0 131.593c0-20.92 15.981-37.959 35.604-37.959 9.602 0 18.666 3.813 25.457 10.74 6.792 6.927 10.532 16.131 10.532 25.883 0 20.931-15.993 38.037-35.604 38.037zm0-69.552c-17.015 0-30.87 15.062-30.87 33.581 0 5.598 1.194 11.016 3.531 16.112.429.909.342 1.977-.209 2.799l-3.281 4.892 5.093-1.401c.925-.245 1.916-.098 2.712.406 5.158 3.249 11.109 4.981 17.097 4.981 17.016 0 30.871-15.077 30.871-33.671 0-8.935-3.396-17.335-9.57-23.629-6.173-6.295-14.374-9.759-23.219-9.759z" transform="translate(102.04)"/>
  <path fill="#fff" d="M110.63 38.473c-6.793-6.926-15.856-10.74-25.458-10.74-19.624 0-35.604 17.039-35.604 37.959 0 6.253 1.225 12.397 3.364 17.797l-4.187 16.686c-.602 2.488 1.608 4.588 4.06 3.904l15.531-4.282c4.933 2.552 10.392 3.866 15.835 3.866 19.61 0 35.604-17.106 35.604-38.037 0-9.752-3.74-18.956-10.532-25.883h.171zm-5.005 50.309c-.859 2.431-5.054 4.558-7.088 4.803-1.861.214-4.299.307-6.952-.341-1.608-.384-3.702-.896-6.355-1.791-11.276-4.8-18.579-15.931-19.13-16.686-.55-.755-4.47-5.96-4.47-11.351 0-5.483 2.883-8.168 3.885-9.283.922-1.095 2.066-1.364 2.75-1.364.687 0 1.375.044 1.979.064.612.03 1.486-.235 2.317 1.77.86 2.04 2.97 7.01 3.226 7.52.243.511.406 1.095.114 1.748-.307.667-.464.987-.924 1.541-.464.554-1.436 1.558-1.832 2.084-.623.688-.507 1.342-.231 1.919.55 1.173 2.566 4.94 5.496 8.018 3.775 3.93 6.952 5.163 7.951 5.718.999.554 1.607.469 2.196-.148.595-.617 2.567-2.962 3.24-3.975.67-1.001 1.34-.83 2.266-.489.924.34 5.882 2.725 6.894 3.292 1.01.553 1.682.83 1.925 1.277.242.447.242 2.53-.619 4.975z"/>
</svg>