<?xml version="1.0" encoding="UTF-8"?>
<svg xmlns="http://www.w3.org/2000/svg" viewBox="0 0 302.4 180.5">
  <style>
    .st0{fill:#f1f1f1}.st1{fill:#e6e6e6}.st2{fill:#4c4c4c}.st3{fill:#fff}.st4{fill:#ddd}.st5{fill:#00a884}
  </style>
  <path class="st0" d="M165.3 22.6H18.9c-3.3 0-5.9 2.7-5.9 5.9v147.8c0 3.3 2.7 5.9 5.9 5.9h146.4c3.3 0 5.9-2.7 5.9-5.9V28.5c.1-3.2-2.6-5.9-5.9-5.9z"/>
  <path class="st1" d="M87.8 164.5h8.7v3.7h-8.7z"/>
  <path class="st2" d="M171.4 137.3V28.5c0-3.3-2.7-6-6-6H18.8c-3.3 0-6 2.7-6 6v108.9h158.6z"/>
  <path class="st3" d="M101.1 25.6h-17c-.6 0-1.1.5-1.1 1.1s.5 1.1 1.1 1.1h17c.6 0 1.1-.5 1.1-1.1s-.5-1.1-1.1-1.1z"/>
  <path class="st0" d="M89.7 25.6h-1.9c-.7 0-1.3.6-1.3 1.3 0 .7.6 1.3 1.3 1.3h1.9c.7 0 1.3-.6 1.3-1.3-.1-.7-.6-1.3-1.3-1.3z"/>
  <path class="st0" d="M12.7 137.3v39c0 3.3 2.7 6 6 6h146.7c3.3 0 6-2.7 6-6v-39H12.7z"/>
  <circle class="st1" cx="92.2" cy="159.9" r="7.5"/>
  <path class="st3" d="M92.2 164.3c-2.4 0-4.4-2-4.4-4.4s2-4.4 4.4-4.4 4.4 2 4.4 4.4-2 4.4-4.4 4.4zm0-6.7c-1.2 0-2.3 1-2.3 2.3s1 2.3 2.3 2.3 2.3-1 2.3-2.3-1-2.3-2.3-2.3z"/>
  <path class="st3" d="M92.2 166.5c-3.6 0-6.6-2.9-6.6-6.6 0-3.6 2.9-6.6 6.6-6.6 3.6 0 6.6 2.9 6.6 6.6 0 3.6-3 6.6-6.6 6.6zm0-11c-2.4 0-4.4 2-4.4 4.4s2 4.4 4.4 4.4 4.4-2 4.4-4.4-2-4.4-4.4-4.4z"/>
  <path class="st4" d="M236 37.8h-54.9c-1.2 0-2.2 1-2.2 2.2v122.9c0 1.2 1 2.2 2.2 2.2H236c1.2 0 2.2-1 2.2-2.2V40c0-1.2-1-2.2-2.2-2.2z"/>
  <path class="st2" d="M236 44.3h-54.9v110.7H236V44.3z"/>
  <circle class="st4" cx="208.6" cy="41.1" r=".7"/>
  <path class="st4" d="M207.4 158h2.1v2.7h-2.1z"/>
  <path class="st3" d="M295.9 45.3h-85.8c-1.2 0-2.1.9-2.1 2.1v84.9c0 1.2.9 2.1 2.1 2.1h85.8c1.2 0 2.1-.9 2.1-2.1v-85c0-1.1-.9-2-2.1-2z"/>
  <path class="st4" d="M296.5 129.6h-87.1c-.2 0-.4.2-.4.4v4.2c0 .2.2.4.4.4h87.1c.2 0 .4-.2.4-.4V130c0-.2-.2-.4-.4-.4z"/>
  <path class="st1" d="M279.5 132.5h-52.8c-.5 0-1-.4-1-1s.4-1 1-1h52.8c.5 0 1 .4 1 1-.1.5-.5 1-1 1z"/>
  <path class="st3" d="M253.2 132.1c.2 0 .3-.1.3-.3 0-.2-.1-.3-.3-.3-.2 0-.3.1-.3.3 0 .2.1.3.3.3z"/>
  <path class="st5" d="M205.1 77.6c-.2 0-.4-.1-.4-.3-.2-.4-5.8-9.8-.1-16.6 3.3-3.9 8.7-5.2 16-3.9.4.1.7.4.7.8 0 .4-.4.7-.8.6-6.6-1.2-11.4-.1-14.3 3.4-5 6-0 14.6.2 14.9.2.4.1.8-.3 1a.6.6 0 0 1-.3.1zm24.1 21.2c-3.7 0-7.1-.3-10.3-.9-5.2-1-9.6-2.6-13.1-4.9-8.7-5.6-14.2-14.5-16.2-26.5-.1-.4.2-.8.6-.9.4-.1.8.2.9.6 4.1 25.4 24.7 27.6 38 26.5.4 0 .7.3.8.7 0 .4-.3.7-.7.8-2.8.4-5.3.5-7.7.5h-2.3zm-24.7-6.8c-.1 0-.1 0 0 0-.4 0-.7-.2-.8-.6-.1-.4.1-.8.5-1 .1 0 11.3-3.8 19.4-4.3 5.7-.4 11.5 2.5 17.3 8.6.3.3.3.7 0 1-.3.3-.7.3-1 0-5.4-5.6-10.7-8.2-15.7-7.9-7.6.5-18.6 4.2-18.7 4.2-.3.2-.6.2-1 0zm46.5-11.9c-.4 0-.8-.3-.8-.8 0-12.4-6.1-19.8-18-21.8-.4-.1-.7-.5-.6-.9.1-.4.5-.7.9-.6 12.7 2.1 19.4 10.3 19.4 23.4-.1.4-.5.7-.9.7zm-3.5 4c-.2 0-.4-.1-.5-.2-5.6-4.9-12.5-7.9-19.9-8.9-3.1-.4-6.3-.4-9.4-.1-.4 0-.8-.3-.9-.7 0-.4.3-.8.7-.9 3.3-.4 6.7-.4 10 0 7.9 1 15.2 4.2 21.1 9.4.3.3.4.7.1 1-.1.3-.3.4-.2.4z"/>
  <path class="st3" d="M219.4 83.8c-.9 0-2.3-.2-3.8-1.1-.4-.2-.5-.7-.3-1.1.2-.4.7-.5 1.1-.3 2.5 1.4 4.6.7 6.3-1.1 1.2-1.3 2.3-3.4 1.3-4.8-.9-1.2-2.9-.9-4.8-.7-.5.1-1.1.1-1.6.2-2.1.1-3.7-.4-4.7-1.5-1.9-2.2-.6-5.3 1.4-7.9.3-.3.7-.4 1.1-.1.3.3.4.7.1 1.1-1.7 2.1-2.5 4.3-1.2 5.8.6.7 1.7 1 3.2.9.5 0 1.1-.1 1.7-.2 3.1-.4 5.4.1 6.8 2.1 1.6 2.4.1 5.4-1.5 7.1-1.5 1.6-3.2 2.6-5.1 2.6zm-2.8 5.8c-.4 0-.7-.3-.8-.7s.2-.8.6-.9c.1 0 .2 0 .3-.1.4-.1.8.1 1 .5.1.4-.1.8-.5 1-.2 0-.4.1-.6.2zm-5.6-3c-.3 0-.6-.2-.7-.5-.2-.4 0-.8.3-1 2.9-1.3 3-1.5 3.3-2.1.2-.3.6-.5 1-.4.4.2.5.6.4 1-.4.9-1.1 1.4-4 2.8-.2.2-.3.2-.3.2zm18.8 2c-1.8 0-3.9-2.5-4.7-6.9-.8-4.5.6-6.5 1.9-7.2 1.6-.8 4.1-.5 6.5 2.8.3.3.2.8-.1 1.1-.3.3-.8.2-1.1-.1-1.7-2.4-3.4-2.9-4.3-2.4-.7.3-1.5 1.8-.9 5.2.6 3.4 2.1 5.1 3.1 5.1.3 0 .6-.2.9-.6.2-.3.7-.4 1-.2.3.2.4.7.2 1-.1.1-.8 2.2-2.5 2.2z"/>
  <path class="st5" d="M254.4 111.6c-.4 0-.7-.3-.8-.7-.1-.4.2-.8.6-.9 6-1.3 9.3-5.3 9.3-11.4 0-3.5-1.4-7-3.9-9.8-2.2-2.5-4.9-4.1-8-4.8-.4-.1-.7-.5-.6-.9.1-.4.5-.7.9-.6 3.5.7 6.6 2.6 9.1 5.4 2.8 3.2 4.3 7.1 4.3 10.9 0 6.9-3.9 11.7-10.8 13.1 0-.2-.1-.3-.1-.3zm-11.8 2.2c-.1 0-.2 0-.3-.1-4.8-2.2-8.8-5.8-11.8-10.6-3.8-6.1-4.9-13.1-3.2-19.7.1-.4.5-.7.9-.6.4.1.7.5.6.9-1.6 6.1-.6 12.5 2.9 18.1 2.7 4.4 6.4 7.8 10.9 9.8.4.2.6.6.4 1 0 .2-.2.2-.4.2zm15.7-21.8c-3.9 0-7.5-1.1-10-3.1-3.1-2.4-4.6-6.1-4.2-10.4 0-.4.4-.7.8-.7.4 0 .8.4.7.8-.7 7.3 5.4 10.9 12.3 11 2.9 0 5.6-.6 7.5-1.8 2.4-1.6 3.7-4.2 3.5-7.1 0-.4.3-.8.7-.8.4 0 .8.3.8.7.2 3.5-1.4 6.5-4.3 8.4-2.1 1.4-5.1 2-8.4 2h-.4zm-14.8 15.8c-7.3 0-17.1-6.1-19.2-19.7-.1-.4.2-.8.6-.9.4-.1.8.2.9.6 1.8 11.9 10 18.4 17.7 17.8 5.5-.4 10.1-4.3 11.1-9.6.1-.4.5-.7.9-.6.4.1.7.5.6.9-1.2 6.1-6.4 10.4-12.6 11h-1z"/>
  <circle class="st5" cx="245.9" cy="89.8" r="1.5"/>
  <circle class="st5" cx="229.8" cy="89.8" r="1.5"/>
  <circle class="st5" cx="237.9" cy="89.8" r="1.5"/>
</svg>